# xmcd CD database file
#
# Track frame offsets:
#	150
#	22768
#	41825
#	64444
#
# Disc length: 1108 seconds
#
# Revision: 0
# Processed by: cddbd v1.5.2PL0 Copyright (c) Steve Scherf et al.
# Submitted via: CDex 1.70beta3
#
DISCID=2f045204
DTITLE=MAX - ラフカット ダイアモンド
DYEAR=2009
DGENRE=VISION FACTORY
TTITLE0=ラフカット ダイアモンド
TTITLE1=The Power Of Love
TTITLE2=ラフカット ダイアモンド (Instrumental)
TTITLE3=The Power Of Love (Instrumental)
EXTD=YEAR: 2009
EXTT0=
EXTT1=
EXTT2=
EXTT3=
PLAYORDER=
